
Release info:

General
Format                                   : Matroska
Format version                           : Version 2
File size                                : 673 MiB
Duration                                 : 1h 34mn
Overall bit rate                         : 997 Kbps


Video
ID                                       : 1
Format                                   : MPEG-4 Visual
Format profile                           : Simple@L3
Format settings, BVOP                    : No
Format settings, QPel                    : No
Format settings, GMC                     : No warppoints
Format settings, Matrix                  : Default (H.263)
Codec ID                                 : V_MS/VFW/FOURCC / XVID
Codec ID/Hint                            : XviD
Duration                                 : 1h 34mn
Bit rate                                 : 849 Kbps
Width                                    : 624 pixels
Height                                   : 352 pixels
Display aspect ratio                     : 16:9
Frame rate mode                          : Constant
Frame rate                               : 23.976 fps
Color space                              : YUV
Chroma subsampling                       : 4:2:0
Bit depth                                : 8 bits
Scan type                                : Progressive
Compression mode                         : Lossy
Bits/(Pixel*Frame)                       : 0.161
Stream size                              : 573 MiB (85%)
Language                                 : English
Default                                  : Yes
Forced                                   : No

Audio
ID                                       : 2
Format                                   : MPEG Audio
Format version                           : Version 1
Format profile                           : Layer 3
Mode                                     : Joint stereo
Mode extension                           : MS Stereo
Muxing mode                              : Header stripping
Codec ID                                 : A_MPEG/L3
Codec ID/Hint                            : MP3
Duration                                 : 1h 34mn
Bit rate mode                            : Constant
Bit rate                                 : 128 Kbps
Channel(s)                               : 2 channels
Sampling rate                            : 48.0 KHz
Compression mode                         : Lossy
Stream size                              : 86.4 MiB (13%)
Language                                 : English
Default                                  : Yes
Forced                                   : No

Text
ID                                       : 3
Format                                   : UTF-8
Codec ID                                 : S_TEXT/UTF8
Codec ID/Info                            : UTF-8 Plain Text
Language                                 : English
Default                                  : Yes
Forced                                   : No



Source:
credit to original movie ripper PTpOWeR (Thanks)[

IMDB Info:

An untold chapter in the Mass Effect saga, following the early career of Alliance Marine, James Vega, as he leads a squad of elite special forces into battle against a mysterious alien threat known as The Collectors. Stationed at a colony in a remote star system, Vega and his troops must protect the inhabitants from an invasion of the deadly insectoid warriors determined to collect the population for unknown purposes...
Director: Atsushi Takeuchi
Writer: Henry Gilroy (screenplay)
Stars: Laura Bailey, Bruce Carey and Justin Cook 

Genres: Animation | Action | Sci-Fi
 
http://www.imdb.com/title/tt2140141/

Screen Shot:
 
http://www.shotpix.com/images/06734002853984017643.png 
http://www.shotpix.com/images/03947171348249838378.png 
http://www.shotpix.com/images/91590985031500007166.png 
http://www.shotpix.com/images/24009555273268555807.png 
http://www.shotpix.com/images/67874633278484099953.png 
http://www.shotpix.com/images/34036957307470103981.png